<?xml version="1.0" encoding="UTF-8"?>
<svg width="469px" height="143px" viewBox="0 0 469 143" version="1.1" xmlns="http://www.w3.org/2000/svg" xmlns:xlink="http://www.w3.org/1999/xlink">
    <title>logo</title>
    <g id="Page-1" stroke="none" stroke-width="1" fill="none" fill-rule="evenodd">
        <g id="logo">
            <rect id="Rectangle-2" x="0" y="0" width="469" height="143"></rect>
            <g id="Tollerud" transform="translate(162.010671, 57.601651)" fill="#000000" fill-rule="nonzero">
                <polygon id="Shape" points="0 7.64385187 0 0.595250761 28.8136738 0.595250761 28.8136738 7.64385187 18.4676096 7.64385187 18.4676096 38.5464873 10.4018824 38.5464873 10.4018824 7.64385187"></polygon>
                <path d="M54.788008,39.1433382 C44.3861257,39.1433382 34.9856872,32.3659602 34.9856872,19.5712691 C34.9856872,6.77657791 44.6093984,0 54.9554626,0 C65.1340722,0 74.7586043,6.83098255 74.7586043,19.5712691 C74.7586043,31.1186538 66.5804198,39.1433382 54.788008,39.1433382 L54.788008,39.1433382 Z M54.8996444,31.7699094 C60.962484,31.7699094 66.4696043,27.8663765 66.4696043,19.5712691 C66.4696043,11.4929801 61.0183022,7.48143802 54.9554626,7.48143802 C48.8368048,7.48143802 43.3846818,11.5473848 43.3846818,19.5712691 C43.3855027,27.8663765 48.6701711,31.7699094 54.8996444,31.7699094 L54.8996444,31.7699094 Z" id="Shape"></path>
                <polygon id="Shape" points="93.5561979 31.2826678 109.798468 31.2826678 109.798468 38.5472873 85.2130214 38.5472873 85.2130214 0.596050831 93.5561979 0.596050831"></polygon>
                <polygon id="Shape" points="127.152177 31.2826678 143.394447 31.2826678 143.394447 38.5472873 118.809 38.5472873 118.809 0.596050831 127.152177 0.596050831"></polygon>
                <polygon id="Shape" points="176.267251 7.69825651 160.803973 7.69825651 160.803973 15.3973131 175.264987 15.3973131 175.264987 22.4995188 160.803973 22.4995188 160.803973 31.1746586 176.711334 31.1746586 176.711334 38.5480874 152.404979 38.5480874 152.404979 0.596050831 176.267251 0.596050831"></polygon>
                <path d="M220.098479,37.3535855 L220.098479,38.4928827 L211.197941,38.4928827 L203.18639,25.9686146 L196.234564,25.9686146 L196.234564,38.4928827 L187.889746,38.4928827 L187.889746,0.541646191 L204.521923,0.541646191 C213.421639,0.596050831 218.261404,6.83098255 218.261404,13.5539559 C218.261404,18.3791674 215.758615,22.607528 211.307115,24.7221083 L220.098479,37.3535855 L220.098479,37.3535855 Z M204.467746,19.3000459 C207.9728,19.3000459 210.253957,16.6438194 210.196497,13.390742 C210.196497,10.1920692 208.026976,7.64385187 204.467746,7.64385187 L196.12457,7.64385187 L196.12457,19.3000459 L204.467746,19.3000459 L204.467746,19.3000459 Z" id="Shape"></path>
                <path d="M229.552273,25.9150101 L229.552273,0.596050831 L237.895449,0.596050831 L237.895449,25.7525962 C237.895449,29.818543 241.289687,31.8787186 245.128008,31.8787186 C248.96715,31.8787186 252.302286,29.818543 252.302286,25.7525962 L252.302286,0.596050831 L260.534647,0.596050831 L260.534647,25.9150101 C260.534647,34.426936 253.358727,38.9809243 245.126366,38.9809243 C236.894005,38.9809243 229.552273,34.4261359 229.552273,25.9150101 L229.552273,25.9150101 Z" id="Shape"></path>
                <path d="M287.343792,0.649655401 C299.74692,0.649655401 306.3663,9.81203679 306.421297,19.4624598 C306.532933,29.1672874 299.913554,38.5472873 287.343792,38.5472873 L272.881136,38.5472873 L272.881136,0.649655401 L287.343792,0.649655401 L287.343792,0.649655401 Z M287.232155,31.2274631 C294.408075,31.2274631 298.133939,25.5893823 298.133939,19.5168644 C298.133939,13.4443466 294.295618,7.96867957 287.232155,7.96867957 L281.168495,7.96867957 L281.168495,31.2274631 L287.232155,31.2274631 L287.232155,31.2274631 Z" id="Shape"></path>
            </g>
            <path d="M82.4839273,140.272626 L95.1738252,140.272626 L95.1738252,143 L34.8114657,143 L34.8114657,140.272626 L47.5013636,140.272626 L47.5013636,28.2924381 C40.1277806,26.4177752 32.9252955,25.2241422 26.4088393,25.2241422 C12.1757856,25.2241422 4.11617359,34.5982703 4.11617359,39.8821508 C4.11617359,40.9049161 4.63028596,41.5867596 5.65932936,41.5867596 C7.20248513,41.5867596 7.37440169,40.3931266 8.06043062,38.8593855 C10.4615319,33.575505 15.6059302,31.5307881 20.4073141,31.5307881 C29.152955,31.5307881 35.1552988,38.5184637 35.1552988,47.2107482 C35.1552988,56.2447681 28.8107592,62.8907084 18.0070315,62.8907084 C7.5454996,62.891522 0,53.6882617 0,43.8023442 C0,30.8497582 11.3178401,21.986606 26.5799372,21.986606 C51.1026062,21.986606 84.1989996,39.2011209 104.948509,39.2011209 C118.495534,39.2011209 126.384048,31.7016558 126.384048,19.4300996 C126.384048,10.3968933 118.667451,4.60203698 115.580321,4.60203698 C114.552096,4.60203698 113.69415,5.1130128 113.69415,6.13577809 C113.69415,7.49946515 114.552096,7.6695192 115.409223,8.01044097 C115.752237,8.18049502 122.268693,10.5669474 122.268693,19.2592319 C122.268693,28.2924381 115.238125,34.0872945 107.177694,34.0872945 C97.7460244,34.0872945 91.0584702,26.4177752 91.0584702,17.8955448 C91.0584702,6.64675391 99.9760277,0 109.749893,0 C122.268693,0 129.642276,9.88510384 129.642276,19.6001536 C129.642276,34.2581622 119.181563,42.4386572 104.947691,42.4386572 C98.0890388,42.4386572 90.5443579,40.9049161 82.4839273,38.6901451 L82.4839273,140.272626 Z" id="Monogram" fill="#FFF200" fill-rule="nonzero"></path>
        </g>
    </g>
</svg>